HIERARCHY
ROOT Hips
{
	OFFSET 0.00000 0.00000 0.00000
	CHANNELS 6 Xposition Yposition Zposition Zrotation Yrotation Xrotation 
	JOINT LHipJoint
	{
		OFFSET 0 0 0
		CHANNELS 3 Zrotation Yrotation Xrotation
		JOINT LeftUpLeg
		{
			OFFSET 1.29432 -1.88279 0.59910
			CHANNELS 3 Zrotation Yrotation Xrotation
			JOINT LeftLeg
			{
				OFFSET 2.63039 -7.22694 0.00000
				CHANNELS 3 Zrotation Yrotation Xrotation
				JOINT LeftFoot
				{
					OFFSET 2.70674 -7.43672 0.00000
					CHANNELS 3 Zrotation Yrotation Xrotation
					JOINT LeftToeBase
					{
						OFFSET 0.15066 -0.41394 2.09027
						CHANNELS 3 Zrotation Yrotation Xrotation
						End Site
						{
							OFFSET 0.00000 -0.00000 1.07518
						}
					}
				}
			}
		}
	}
	JOINT RHipJoint
	{
		OFFSET 0 0 0
		CHANNELS 3 Zrotation Yrotation Xrotation
		JOINT RightUpLeg
		{
			OFFSET -1.37068 -1.88279 0.59910
			CHANNELS 3 Zrotation Yrotation Xrotation
			JOINT RightLeg
			{
				OFFSET -2.57023 -7.06166 0.00000
				CHANNELS 3 Zrotation Yrotation Xrotation
				JOINT RightFoot
				{
					OFFSET -2.76461 -7.59570 0.00000
					CHANNELS 3 Zrotation Yrotation Xrotation
					JOINT RightToeBase
					{
						OFFSET -0.24175 -0.64785 2.19719
						CHANNELS 3 Zrotation Yrotation Xrotation
						End Site
						{
							OFFSET -0.00000 -0.00000 1.14803
						}
					}
				}
			}
		}
	}
	JOINT LowerBack
	{
		OFFSET 0 0 0
		CHANNELS 3 Zrotation Yrotation Xrotation
		JOINT Spine
		{
			OFFSET -0.03138 2.03983 -0.23106
			CHANNELS 3 Zrotation Yrotation Xrotation
			JOINT Spine1
			{
				OFFSET -0.00325 2.06238 -0.06878
				CHANNELS 3 Zrotation Yrotation Xrotation
				JOINT Neck
				{
					OFFSET 0 0 0
					CHANNELS 3 Zrotation Yrotation Xrotation
					JOINT Neck1
					{
						OFFSET -0.00002 1.75318 0.18090
						CHANNELS 3 Zrotation Yrotation Xrotation
						JOINT Head
						{
							OFFSET 0.08806 1.75856 -0.25387
							CHANNELS 3 Zrotation Yrotation Xrotation
							End Site
							{
								OFFSET 0.02554 1.78597 -0.10684
							}
						}
					}
				}
				JOINT LeftShoulder
				{
					OFFSET 0 0 0
					CHANNELS 3 Zrotation Yrotation Xrotation
					JOINT LeftArm
					{
						OFFSET 3.09657 1.33597 -0.04414
						CHANNELS 3 Zrotation Yrotation Xrotation
						JOINT LeftForeArm
						{
							OFFSET 5.34298 -0.00000 -0.00000
							CHANNELS 3 Zrotation Yrotation Xrotation
							JOINT LeftHand
							{
								OFFSET 3.67262 -0.00000 -0.00000
								CHANNELS 3 Zrotation Yrotation Xrotation
								JOINT LeftFingerBase
								{
									OFFSET 0 0 0
									CHANNELS 3 Zrotation Yrotation Xrotation
									JOINT LeftHandIndex1
									{
										OFFSET 0.59930 -0.00000 -0.00000
										CHANNELS 3 Zrotation Yrotation Xrotation
										End Site
										{
											OFFSET 0.48317 -0.00000 -0.00000
										}
									}
								}
								JOINT LThumb
								{
									OFFSET 0 0 0
									CHANNELS 3 Zrotation Yrotation Xrotation
									End Site
									{
										OFFSET 0.49055 -0.00000 0.49055
									}
								}
							}
						}
					}
				}
				JOINT RightShoulder
				{
					OFFSET 0 0 0
					CHANNELS 3 Zrotation Yrotation Xrotation
					JOINT RightArm
					{
						OFFSET -3.16460 1.32273 -0.23382
						CHANNELS 3 Zrotation Yrotation Xrotation
						JOINT RightForeArm
						{
							OFFSET -5.54967 -0.01834 0.03348
							CHANNELS 3 Zrotation Yrotation Xrotation
							JOINT RightHand
							{
								OFFSET -3.69401 -0.00000 0.00000
								CHANNELS 3 Zrotation Yrotation Xrotation
								JOINT RightFingerBase
								{
									OFFSET 0 0 0
									CHANNELS 3 Zrotation Yrotation Xrotation
									JOINT RightHandIndex1
									{
										OFFSET -0.63811 -0.00000 0.00000
										CHANNELS 3 Zrotation Yrotation Xrotation
										End Site
										{
											OFFSET -0.51446 -0.00000 0.00000
										}
									}
								}
								JOINT RThumb
								{
									OFFSET 0 0 0
									CHANNELS 3 Zrotation Yrotation Xrotation
									End Site
									{
										OFFSET -0.52232 -0.00000 0.52232
									}
								}
							}
						}
					}
				}
			}
		}
	}
}
MOTION
Frames: 14
Frame Time: .0083333
24.0893 18.2957 -8.4155 0 0 0 0 0 0 -21 0 0 0 0 0 0 0 0 0 0 0 0 0 0 21 0 0 0 0 0 0 0 0 0 0 0 0 0 0 0 0 0 0 0 0 0 0 -16 0 0 21 0 0 11 0 0 0 -8 0 0 0 0 0 0 0 0 0 0 0 0 0 0 0 0 0 0 0 0 8 0 0 0 0 0 0 0 0 0 0 0 0 0 0 0 0 0
24.0893 18.2957 -8.4155 6.1450 -1.7201 3.6336 0.0000 0.0000 0.0000 -25.9730 6.8559 19.8349 0.0000 -0.0000 -0.0000 0.0034 -4.6132 6.7042 0.1405 -2.4160 -6.6568 0.0000 0.0000 0.0000 11.4718 17.4727 -24.7976 -1.5601 -7.8825 22.3578 0.0409 -3.9027 -3.0648 -0.0014 -0.2454 0.6743 -6.7579 -3.4902 0.4998 -2.1356 -4.5810 1.9692 1.4906 -2.3815 2.1097 -14.9607 -16.8506 7.0859 22.5120 -24.3684 0.5272 8.0368 -12.4848 3.7092 -0.0000 -0.0000 0.0000 -81.4210 1.1694 18.1847 18.5399 -28.8429 -4.8069 -0.0000 -0.0000 14.9778 10.6792 31.1232 5.5671 -7.1250 0.0000 -0.0000 -24.0842 59.9004 -9.0739 -0.0000 -0.0000 0.0000 92.8454 -8.5597 13.1097 -12.2374 20.1598 -2.1834 0.0000 0.0000 32.4199 -21.5147 21.7273 -8.3026 7.1250 -0.0000 -0.0000 4.5665 -6.8536 4.0020
24.0783 18.2988 -8.2184 6.2725 -1.4786 3.1182 0.0000 0.0000 0.0000 -25.8890 7.0298 20.9816 0.0000 0.0000 0.0000 0.0578 -4.3423 8.0456 0.2826 -3.4188 -9.4469 0.0000 0.0000 0.0000 11.6230 17.5098 -24.3188 -1.7693 -8.3680 23.8374 0.0396 -3.8815 -3.1358 -0.0566 -1.5352 4.2227 -6.6436 -3.3392 0.8240 -2.3441 -4.3963 2.1530 1.2335 -2.2885 2.0782 -15.3682 -17.1565 7.0908 23.1409 -24.9189 0.6955 8.1779 -12.7556 4.0052 0.0000 0.0000 0.0000 -81.1534 0.6873 18.9492 18.6016 -28.9206 -4.8367 -0.0000 -0.0000 14.4328 13.3944 30.3818 6.8675 -7.1250 0.0000 -0.0000 -20.6583 59.8511 -7.6856 0.0000 0.0000 0.0000 92.9607 -7.5139 12.4518 -12.0849 19.9318 -2.1311 0.0000 0.0000 32.6094 -23.1235 21.9702 -9.0768 7.1250 -0.0000 -0.0000 3.5754 -6.3332 3.1655
24.0624 18.3005 -8.0288 5.9064 -1.3460 2.6766 0.0000 0.0000 0.0000 -25.6969 6.1297 18.6313 0.1397 2.4086 6.6363 -0.0673 -5.9985 6.2914 0.7766 -5.6267 -15.7050 0.0000 0.0000 0.0000 12.4100 17.5978 -23.5067 -1.9065 -8.6685 24.7637 0.0480 -4.1846 -3.1900 -0.0680 -1.6824 4.6287 -6.2823 -3.5030 0.8796 -2.1883 -4.6276 2.0673 1.1975 -2.3951 1.9574 -15.9868 -16.8677 7.8326 23.2071 -24.6960 0.9233 8.3806 -12.6891 3.9951 -0.0000 -0.0000 0.0000 -81.4368 1.0699 18.5935 18.7497 -29.1065 -4.9085 -0.0000 -0.0000 14.1233 18.1687 27.1399 8.5142 -7.1250 0.0000 -0.0000 -13.4549 57.8174 -4.2723 -0.0000 -0.0000 0.0000 92.3904 -7.0608 13.0900 -11.9029 19.6589 -2.0695 0.0000 0.0000 32.4625 -24.0934 22.1476 -9.5692 7.1250 -0.0000 -0.0000 2.9847 -5.9767 2.6614
24.0469 18.3217 -7.8366 5.1888 -1.3261 2.3822 0.0000 0.0000 0.0000 -25.0561 5.6330 17.1342 0.3826 3.9724 10.9990 -0.0702 -6.0725 6.3185 0.7575 -5.5584 -15.5084 0.0000 0.0000 0.0000 13.6109 17.4833 -22.7727 -2.0340 -8.9365 25.5969 0.0310 -3.6994 -3.4620 -0.0720 -1.7305 4.7615 -5.3788 -3.1698 0.9854 -2.2651 -4.1880 2.1841 0.6351 -2.1616 1.9140 -14.7683 -17.2325 7.5783 22.7290 -25.0546 1.0876 8.0091 -12.8344 3.9306 -0.0000 0.0000 0.0000 -80.9220 0.7043 19.5207 18.7921 -29.1596 -4.9292 -0.0000 -0.0000 14.2015 14.1566 28.8523 6.9397 -7.1250 0.0000 -0.0000 -18.7453 58.5898 -6.3718 -0.0000 0.0000 0.0000 92.8110 -6.0942 11.8000 -11.7057 19.3618 -2.0036 0.0000 0.0000 33.0661 -24.2398 21.7667 -9.4791 7.1250 -0.0000 -0.0000 2.8516 -6.3555 2.5216
24.0249 18.3262 -7.6507 4.2121 -1.3410 2.1401 0.0000 0.0000 0.0000 -24.0428 4.9242 15.7769 0.6901 5.3109 14.7975 0.0112 -4.9810 7.4699 0.1947 -2.8416 -7.8381 0.0000 0.0000 0.0000 15.0723 17.5460 -22.0097 -2.1407 -9.1533 26.2759 0.0038 -3.0226 -4.0953 -0.1069 -2.1084 5.8054 -4.7043 -3.4745 1.0944 -1.6319 -4.6183 1.9885 0.9203 -2.3647 1.6700 -15.6229 -16.7316 7.9823 22.4261 -24.4865 1.3296 8.1441 -12.5730 3.8919 -0.0000 -0.0000 0.0000 -81.9337 1.2207 18.2088 18.9446 -29.3498 -5.0037 -0.0000 -0.0000 14.8318 12.7310 29.0060 6.2520 -7.1250 0.0000 -0.0000 -20.3323 58.4193 -6.8552 -0.0000 -0.0000 0.0000 91.8616 -5.4097 11.6326 -11.3640 18.8441 -1.8918 0.0000 0.0000 33.9895 -24.7659 21.4407 -9.5722 7.1250 -0.0000 -0.0000 2.4848 -6.6100 2.1844
23.9996 18.3257 -7.4726 3.4408 -1.4268 2.0143 0.0000 0.0000 0.0000 -23.0902 4.5423 14.3962 1.0261 6.4438 18.0776 0.1131 -4.0257 9.1087 0.0008 -0.1788 -0.4912 0.0000 0.0000 0.0000 16.2726 17.4621 -21.5065 -2.2312 -9.3320 26.8394 -0.0215 -2.6110 -4.8707 -0.2031 -2.9021 8.0064 -4.1579 -3.5450 0.8568 -1.2610 -4.7029 2.0087 0.9798 -2.4047 1.8140 -15.6809 -16.5595 8.1535 22.0622 -24.2534 1.4387 8.0939 -12.4622 3.8076 0.0000 0.0000 0.0000 -82.4944 1.2395 17.6556 19.0740 -29.5105 -5.0672 -0.0000 -0.0000 15.0195 12.4775 30.0627 6.3255 -7.1250 0.0000 -0.0000 -21.3724 59.3446 -7.7052 0.0000 0.0000 0.0000 91.4570 -4.4391 11.1259 -11.0818 18.4135 -1.8017 0.0000 0.0000 34.4086 -26.1592 21.5799 -10.2403 7.1250 -0.0000 -0.0000 1.6227 -6.2067 1.4383
23.9795 18.3319 -7.2951 3.2113 -1.4134 1.8622 0.0000 0.0000 0.0000 -22.6123 4.5284 12.9661 1.4050 7.4977 21.1986 0.1579 -4.0519 10.1077 0.0042 -0.4194 -1.1525 0.0000 0.0000 0.0000 16.8362 16.8229 -21.2261 -2.3259 -9.5143 27.4179 -0.0514 -2.1360 -5.6211 -0.3116 -3.5885 9.9218 -4.0213 -3.5170 0.6009 -1.1753 -4.6494 2.1541 0.9689 -2.3826 2.1006 -15.3538 -16.6740 7.6441 21.5288 -24.3884 2.0917 7.8047 -12.4720 3.9947 -0.0000 -0.0000 0.0000 -82.7803 0.9483 17.4559 19.1526 -29.6079 -5.1060 -0.0000 -0.0000 14.9430 11.4161 32.8321 6.2479 -7.1250 0.0000 -0.0000 -24.8203 61.6120 -10.3885 -0.0000 -0.0000 0.0000 91.2776 -3.1512 10.3807 -10.7513 17.9061 -1.6987 0.0000 0.0000 34.8710 -26.9199 21.4097 -10.5007 7.1250 -0.0000 -0.0000 1.1236 -6.2465 0.9949
23.9665 18.3384 -7.1273 3.1690 -1.1621 1.6302 0.0000 0.0000 0.0000 -22.3651 4.4257 11.7219 1.8143 8.4681 24.1450 0.2404 -3.8120 11.4696 0.0533 -1.4901 -4.0985 0.0000 0.0000 0.0000 17.1284 16.0476 -20.8870 -2.4163 -9.6841 27.9597 -0.0853 -1.4780 -6.2694 -0.3878 -3.9990 11.0739 -3.9999 -3.5162 0.7603 -1.1606 -4.6557 2.1918 0.9814 -2.3854 2.0499 -15.1197 -16.7757 7.2198 21.1239 -24.5309 2.7137 7.5744 -12.4938 4.1897 0.0000 0.0000 0.0000 -83.0603 0.7467 17.2565 19.2762 -29.7604 -5.1672 -0.0000 -0.0000 14.8578 12.6576 30.8965 6.5783 -7.1250 0.0000 -0.0000 -21.8380 60.1551 -8.3091 0.0000 0.0000 0.0000 91.2242 -1.9550 8.7842 -10.4388 17.4229 -1.6038 0.0000 0.0000 35.7893 -27.3120 20.9955 -10.4826 7.1250 -0.0000 -0.0000 0.8256 -6.6211 0.7249
23.9485 18.3351 -6.9665 3.2872 -0.8415 1.3834 0.0000 0.0000 0.0000 -22.2991 4.0660 10.5949 2.2499 9.3683 26.9543 0.3666 -3.1675 13.0454 0.1268 -2.2956 -6.3234 0.0000 0.0000 0.0000 17.3536 15.1361 -20.4493 -2.4976 -9.8335 28.4391 -0.1118 -0.9724 -6.7502 -0.2236 -3.0438 8.4008 -4.1371 -3.4769 1.0327 -1.2603 -4.6165 2.1685 0.9757 -2.3643 1.8743 -15.0163 -16.8667 7.1946 20.9640 -24.6949 3.0942 7.4775 -12.5599 4.3023 -0.0000 -0.0000 0.0000 -83.0841 0.7323 17.5179 19.4463 -29.9695 -5.2519 -0.0000 -0.0000 14.4857 12.2689 31.6402 6.5081 -7.1250 0.0000 -0.0000 -22.8621 60.7438 -9.0455 -0.0000 -0.0000 0.0000 91.3731 -0.9185 6.8026 -10.1735 17.0105 -1.5253 0.0000 0.0000 36.8962 -28.0813 21.1489 -10.8959 7.1250 -0.0000 -0.0000 0.3599 -6.3044 0.3182
23.9191 18.3340 -6.8015 3.2401 -0.6161 1.1417 0.0000 0.0000 0.0000 -21.9547 3.7622 9.4115 2.7141 10.2172 29.6830 0.5145 -2.5729 14.7304 0.2004 -2.8826 -7.9521 0.0000 0.0000 0.0000 17.7922 14.6893 -19.7486 -2.5664 -9.9577 28.8399 -0.1302 -1.0442 -7.2826 -0.0398 -1.2870 3.5387 -4.2169 -3.4080 1.1676 -1.3307 -4.5306 2.1792 0.9578 -2.3211 1.8062 -14.7107 -16.9766 7.0245 20.6417 -24.8601 3.6018 7.2912 -12.6121 4.4285 -0.0000 -0.0000 0.0000 -82.9920 0.7411 17.9536 19.5893 -30.1443 -5.3235 -0.0000 -0.0000 13.9915 11.8950 32.9375 6.5337 -7.1250 0.0000 -0.0000 -24.4128 61.8251 -10.3297 -0.0000 -0.0000 0.0000 91.4931 0.1360 4.8591 -9.9529 16.6658 -1.4614 0.0000 0.0000 38.5093 -27.5755 20.1888 -10.2170 7.1250 -0.0000 -0.0000 0.5601 -7.4505 0.4827
23.8927 18.3465 -6.6414 2.8272 -0.4379 0.9803 0.0000 0.0000 0.0000 -21.1926 3.5612 8.0698 3.2092 11.0262 32.3684 0.6626 -2.4070 16.4338 0.3436 -3.7665 -10.4206 0.0000 0.0000 0.0000 18.3992 15.0429 -18.9611 -2.6196 -10.0522 29.1461 -0.1681 -1.1570 -8.2564 -0.1776 -2.7144 7.4847 -3.8821 -3.3401 0.9897 -1.3040 -4.4258 2.3527 0.7832 -2.2692 2.0553 -14.0922 -17.0143 6.7162 20.3642 -24.8508 3.8552 7.1021 -12.5749 4.4365 0.0000 0.0000 0.0000 -82.9751 0.4156 18.2177 19.7013 -30.2808 -5.3799 -0.0000 -0.0000 13.6234 11.6883 32.9075 6.4128 -7.1250 0.0000 -0.0000 -24.6032 61.7468 -10.3701 0.0000 0.0000 0.0000 91.6023 1.2804 3.2910 -9.9037 16.5888 -1.4473 0.0000 0.0000 39.9293 -26.4490 18.5891 -9.0111 7.1250 -0.0000 -0.0000 1.1032 -9.3944 0.9085
23.8724 18.3580 -6.4864 2.7837 -0.1131 0.8310 0.0000 0.0000 0.0000 -20.8765 3.1107 6.7051 3.7379 11.8032 35.0393 0.8257 -1.8732 17.9401 0.3538 -3.8216 -10.5752 0.0000 0.0000 0.0000 18.5879 15.0260 -18.2243 -2.6440 -10.0951 29.2852 -0.2224 -1.0278 -9.3423 -0.6704 -5.2360 14.5830 -3.7025 -3.3578 0.5147 -1.4440 -4.4147 2.6675 0.4967 -2.2689 2.6211 -13.9166 -16.9741 6.4439 20.4646 -24.8323 4.2263 7.0755 -12.5355 4.5807 0.0000 -0.0000 0.0000 -82.9373 0.0017 18.3604 19.9134 -30.5378 -5.4873 -0.0000 -0.0000 13.2537 11.9047 31.6406 6.3109 -7.1250 0.0000 -0.0000 -23.2450 60.6572 -9.1585 0.0000 -0.0000 0.0000 91.7332 2.6650 2.2247 -9.7460 16.3413 -1.4026 0.0000 0.0000 40.2802 -26.6033 18.5819 -9.0677 7.1250 -0.0000 -0.0000 1.0024 -9.3764 0.8258
23.8515 18.3594 -6.3258 2.8796 0.2891 0.6968 0.0000 0.0000 0.0000 -20.7312 2.3391 5.3450 4.2946 12.5424 37.6789 0.9935 -0.3223 18.9619 0.1086 -2.1247 -5.8503 0.0000 0.0000 0.0000 18.8053 14.3789 -17.5059 -2.6435 -10.0942 29.2824 -0.1685 -1.5439 -8.4811 -0.0307 1.1318 -3.1114 -4.3224 -3.6054 1.1323 -1.1494 -4.7963 2.1022 1.1975 -2.4558 1.7844 -14.5326 -16.6686 6.7079 19.8858 -24.6049 5.3905 7.0083 -12.4156 4.8455 -0.0000 -0.0000 0.0000 -83.6888 0.9682 17.8784 20.1171 -30.7832 -5.5912 -0.0000 -0.0000 13.0624 12.4981 30.5130 6.4213 -7.1250 0.0000 -0.0000 -21.6997 59.7650 -8.0500 -0.0000 -0.0000 0.0000 91.0020 2.7499 2.2846 -9.5491 16.0312 -1.3478 0.0000 0.0000 39.7149 -27.0248 19.0555 -9.4547 7.1250 -0.0000 -0.0000 0.7813 -8.7875 0.6528
